<svg width="978" height="978" viewBox="0 0 978 978" fill="none" xmlns="http://www.w3.org/2000/svg">
<rect width="978" height="978" fill="white"/>
<g filter="url(#filter0_d_4772_714)">
<circle cx="488.778" cy="488.778" r="425.778" fill="white"/>
</g>
<g clip-path="url(#clip0_4772_714)">
<path d="M488.775 311.367C536.977 311.367 542.991 311.545 561.903 312.432C580.797 313.319 593.659 316.281 604.977 320.681C616.686 325.187 626.55 331.29 636.414 341.136C645.435 350.005 652.415 360.732 656.869 372.573C661.251 383.874 664.231 396.753 665.118 415.647C665.952 434.559 666.183 440.573 666.183 488.774C666.183 536.976 666.005 542.99 665.118 561.902C664.231 580.796 661.251 593.658 656.869 604.976C652.428 616.823 645.446 627.553 636.414 636.413C627.543 645.431 616.816 652.411 604.977 656.868C593.676 661.25 580.797 664.23 561.903 665.117C542.991 665.951 536.977 666.182 488.775 666.182C440.574 666.182 434.56 666.004 415.648 665.117C396.754 664.23 383.892 661.25 372.574 656.868C360.729 652.423 349.999 645.442 341.137 636.413C332.114 627.546 325.134 616.818 320.682 604.976C316.282 593.675 313.32 580.796 312.433 561.902C311.599 542.99 311.368 536.976 311.368 488.774C311.368 440.573 311.546 434.559 312.433 415.647C313.32 396.736 316.282 383.891 320.682 372.573C325.121 360.725 332.104 349.994 341.137 341.136C350.002 332.11 360.73 325.129 372.574 320.681C383.892 316.281 396.737 313.319 415.648 312.432C434.56 311.598 440.574 311.367 488.775 311.367ZM488.775 400.071C465.25 400.071 442.688 409.416 426.053 426.052C409.417 442.687 400.072 465.249 400.072 488.774C400.072 512.3 409.417 534.862 426.053 551.497C442.688 568.133 465.25 577.478 488.775 577.478C512.301 577.478 534.863 568.133 551.498 551.497C568.134 534.862 577.479 512.3 577.479 488.774C577.479 465.249 568.134 442.687 551.498 426.052C534.863 409.416 512.301 400.071 488.775 400.071V400.071ZM604.09 395.636C604.09 389.754 601.754 384.114 597.595 379.955C593.436 375.796 587.796 373.46 581.914 373.46C576.033 373.46 570.392 375.796 566.234 379.955C562.075 384.114 559.738 389.754 559.738 395.636C559.738 401.517 562.075 407.158 566.234 411.316C570.392 415.475 576.033 417.812 581.914 417.812C587.796 417.812 593.436 415.475 597.595 411.316C601.754 407.158 604.09 401.517 604.09 395.636ZM488.775 435.552C502.891 435.552 516.428 441.16 526.409 451.141C536.39 461.122 541.998 474.659 541.998 488.774C541.998 502.89 536.39 516.427 526.409 526.408C516.428 536.389 502.891 541.997 488.775 541.997C474.66 541.997 461.123 536.389 451.142 526.408C441.161 516.427 435.553 502.89 435.553 488.774C435.553 474.659 441.161 461.122 451.142 451.141C461.123 441.16 474.66 435.552 488.775 435.552V435.552Z" fill="#F4CF32"/>
</g>
<defs>
<filter id="filter0_d_4772_714" x="53" y="54" width="871.555" height="871.555" filterUnits="userSpaceOnUse" color-interpolation-filters="sRGB">
<feFlood flood-opacity="0" result="BackgroundImageFix"/>
<feColorMatrix in="SourceAlpha" type="matrix" values="0 0 0 0 0 0 0 0 0 0 0 0 0 0 0 0 0 0 127 0" result="hardAlpha"/>
<feOffset dy="1"/>
<feGaussianBlur stdDeviation="5"/>
<feColorMatrix type="matrix" values="0 0 0 0 0 0 0 0 0 0 0 0 0 0 0 0 0 0 0.1 0"/>
<feBlend mode="normal" in2="BackgroundImageFix" result="effect1_dropShadow_4772_714"/>
<feBlend mode="normal" in="SourceGraphic" in2="effect1_dropShadow_4772_714" result="shape"/>
</filter>
<clipPath id="clip0_4772_714">
<rect width="425.778" height="425.778" fill="white" transform="translate(275.887 275.886)"/>
</clipPath>
</defs>
</svg>
