<?xml version="1.0" encoding="utf-8"?>
<!-- Generator: Adobe Illustrator 23.0.2, SVG Export Plug-In . SVG Version: 6.00 Build 0)  -->
<svg version="1.1" xmlns="http://www.w3.org/2000/svg" xmlns:xlink="http://www.w3.org/1999/xlink" x="0px" y="0px"
	 viewBox="0 0 395.29 369.42" style="enable-background:new 0 0 395.29 369.42;" xml:space="preserve">
<style type="text/css">
	.st0{fill:none;stroke:#000000;stroke-width:0.25;stroke-miterlimit:10;}
	.st1{fill:#FFFFFF;}
	.st2{fill:none;stroke:#000000;stroke-width:40;stroke-linecap:round;stroke-miterlimit:10;}
	.st3{fill:none;stroke:#000000;stroke-width:40;stroke-miterlimit:10;}
	.st4{fill:#254B5C;}
	.st5{fill:#F4CF32;}
	.st6{fill:#DBBA2E;}
	.st7{filter:url(#Adobe_OpacityMaskFilter);}
	.st8{opacity:0.9;mask:url(#SVGID_1_);}
	.st9{filter:url(#Adobe_OpacityMaskFilter_1_);}
	.st10{opacity:0.6;mask:url(#SVGID_2_);}
</style>
<g id="Layer_2">
</g>
<g id="Layer_1">
	<g>
		<g>
			<path class="st4" d="M196.41,40.05c30.16,0,57.06,14.19,74.4,36.23c5.67-8.36,13.18-15.23,20.68-22.07
				c-22.87-27-57-44.17-95.07-44.17c-68.7,0-124.59,55.89-124.59,124.59c0,22.02,5.76,42.71,15.82,60.68l-9.71,6.3
				c-3.12,2.02-3.29,6.02-0.31,7.2l41.65,16.43c2.98,1.18,6.87-1.35,7.01-4.55l1.94-44.73c0.14-3.2-3.58-4.67-6.7-2.64l-8.65,5.62
				c-7.04-13.23-11.05-28.3-11.05-44.3C101.82,82.48,144.26,40.05,196.41,40.05z"/>
			<path class="st5" d="M256.28,205.2c-0.18-0.14-0.35-0.3-0.5-0.49c-9.76-12.51-18.84-24.16-27.98-35.87
				c-1.06-1.36-0.75-3.33,0.66-4.31c0.79-0.55,1.53-1.05,2.26-1.56c16.83-11.65,24.45-33.47,18.25-52.91
				c-6.23-19.57-23.12-33.29-46.25-33.54c-12.92-0.14-25.84-0.15-38.76-0.14c1.1,1.74,18.72,26.06,19.55,27.92
				c6.29,0.02,12.59,0.06,18.88,0.13c12.61,0.14,20.79,8.26,20.69,20c-0.1,11.3-8.58,19.14-20.91,19.29
				c-4.59,0.05-9.17,0.02-13.76,0.02c-3.08,0-6.16,0-9.61,0c-2.5,0-3.9,2.88-2.36,4.85c22.64,28.95,44.66,57.12,66.61,85.2
				c0.11-0.06,0.2-0.12,0.31-0.18c1.95-0.98,4.02-1.79,6.07-2.59c0.01-0.01,0.02-0.02,0.03-0.03c0.55-0.46,1.46-0.82,2.06-1.19
				c0.94-0.58,1.82-1.22,2.73-1.83c0.06-0.06,0.12-0.13,0.2-0.21c1.46-1.51,3.17-2.84,4.71-4.28c1.86-1.75,3.82-3.43,5.63-5.22
				c0.32-0.31,0.61-0.64,0.91-0.97L256.28,205.2z"/>
			<path class="st6" d="M256.28,205.2c-0.18-0.14-0.35-0.3-0.5-0.49c-0.92-1.18-1.83-2.34-2.74-3.51
				c-7.07,6.1-15.06,11.17-23.72,14.98c4.59,5.87,9.17,11.73,13.75,17.58c0.11-0.06,0.2-0.12,0.31-0.18
				c1.95-0.98,4.02-1.79,6.07-2.59c0.01-0.01,0.02-0.02,0.03-0.03c0.55-0.46,1.46-0.82,2.06-1.19c0.94-0.58,1.82-1.22,2.73-1.83
				c0.06-0.06,0.12-0.13,0.2-0.21c1.46-1.51,3.17-2.84,4.71-4.28c1.86-1.75,3.82-3.43,5.63-5.22c0.32-0.31,0.61-0.64,0.91-0.97
				L256.28,205.2z"/>
			<path class="st4" d="M286.77,220.88l-18.74-23.85c-3.19,3.58-6.64,6.91-10.33,9.98l-0.19-0.24c-16.49,14-37.82,22.46-61.1,22.46
				c-15.38,0-29.91-3.69-42.75-10.23c-6.58,7.81-13.21,15.58-19.94,23.27c18.43,10.78,39.85,16.96,62.69,16.96
				c21.49,0,41.71-5.48,59.37-15.11c0.01,0.04,0.02,0.08,0.03,0.11C267.32,238.08,277.76,230.18,286.77,220.88z"/>
		</g>
		<g>
			<g>
				<path class="st5" d="M82.02,348.88h21.42v9.49H72v-50.31h31.08v9.49H82.02v10.71h19.24v9.34H82.02V348.88z"/>
				<path class="st5" d="M138.59,359.37c-7.65,0-13.97-2.52-18.95-7.55c-4.99-5.03-7.48-11.24-7.48-18.62
					c0-7.43,2.49-13.64,7.48-18.65c4.99-5.01,11.3-7.51,18.95-7.51c4.6,0,8.85,1.07,12.74,3.2c3.9,2.13,6.93,5.02,9.11,8.66
					l-8.64,4.96c-1.26-2.25-3.05-4.01-5.37-5.28s-4.94-1.91-7.84-1.91c-4.94,0-8.92,1.53-11.94,4.6c-3.03,3.07-4.54,7.04-4.54,11.93
					c0,4.84,1.51,8.79,4.54,11.86c3.02,3.07,7.01,4.6,11.94,4.6c2.9,0,5.53-0.63,7.88-1.9c2.35-1.27,4.13-3.01,5.34-5.21l8.64,4.96
					c-2.18,3.64-5.2,6.53-9.08,8.66C147.49,358.31,143.23,359.37,138.59,359.37z"/>
				<path class="st5" d="M170.97,308.05h10.02v50.31h-10.02V308.05z"/>
				<path class="st5" d="M222.67,358.37L212.4,340.9h-7.59v17.47h-10.02v-50.31h20.33c4.69,0,8.69,1.63,11.98,4.89
					c3.29,3.26,4.94,7.19,4.94,11.79c0,3.12-0.9,6-2.69,8.66c-1.79,2.66-4.16,4.66-7.11,6l11.25,18.98H222.67z M204.81,317.32v14.88
					h10.31c1.89,0,3.51-0.73,4.87-2.19c1.35-1.46,2.03-3.22,2.03-5.28c0-2.06-0.68-3.81-2.03-5.25c-1.36-1.44-2.98-2.16-4.87-2.16
					H204.81z"/>
				<path class="st5" d="M267.25,359.37c-7.65,0-13.97-2.52-18.95-7.55c-4.99-5.03-7.48-11.24-7.48-18.62
					c0-7.43,2.49-13.64,7.48-18.65c4.99-5.01,11.3-7.51,18.95-7.51c4.6,0,8.85,1.07,12.74,3.2c3.9,2.13,6.93,5.02,9.11,8.66
					l-8.64,4.96c-1.26-2.25-3.05-4.01-5.37-5.28s-4.94-1.91-7.84-1.91c-4.94,0-8.92,1.53-11.94,4.6c-3.03,3.07-4.54,7.04-4.54,11.93
					c0,4.84,1.51,8.79,4.54,11.86c3.02,3.07,7.01,4.6,11.94,4.6c2.9,0,5.53-0.63,7.88-1.9c2.35-1.27,4.13-3.01,5.34-5.21l8.64,4.96
					c-2.18,3.64-5.2,6.53-9.08,8.66C276.16,358.31,271.9,359.37,267.25,359.37z"/>
				<path class="st5" d="M309.66,348.88h19.39v9.49h-29.41v-50.31h10.02V348.88z"/>
				<path class="st5" d="M349.09,348.88h21.42v9.49h-31.44v-50.31h31.08v9.49h-21.06v10.71h19.24v9.34h-19.24V348.88z"/>
			</g>
		</g>
		<path class="st5" d="M38.63,317.3c4.54,0.05,7.49,2.98,7.46,7.21c-0.03,4.07-3.09,6.9-7.54,6.95c-1.65,0.02-3.31,0.01-4.96,0.01
			c-1.11,0-2.22,0-3.46,0c-0.9,0-1.4,1.04-0.85,1.75c6.67,8.53,13.18,16.86,19.66,25.15h12.15c0.01-0.01,0.03-0.03,0.04-0.04
			c0.11-0.11,0.22-0.23,0.33-0.35l-3.41-4.35c-0.06-0.05-0.13-0.11-0.18-0.18c-3.52-4.51-6.79-8.71-10.08-12.93
			c-0.38-0.49-0.27-1.2,0.24-1.55c0.29-0.2,0.55-0.38,0.81-0.56c6.07-4.2,8.81-12.06,6.58-19.07c-2.25-7.05-8.33-12-16.67-12.09
			c-4.66-0.05-9.31-0.06-13.97-0.05c0.4,0.63,6.75,9.39,7.05,10.06C34.09,317.27,36.36,317.28,38.63,317.3z"/>
	</g>
</g>
</svg>
