<?xml version="1.0" encoding="utf-8"?>
<!-- Generator: Adobe Illustrator 27.0.0, SVG Export Plug-In . SVG Version: 6.00 Build 0)  -->
<svg version="1.1" id="Capa_1" xmlns="http://www.w3.org/2000/svg" xmlns:xlink="http://www.w3.org/1999/xlink" x="0px" y="0px"
	 viewBox="0 0 150 36.91" style="enable-background:new 0 0 150 36.91;" xml:space="preserve">
<style type="text/css">
	.st0{clip-path:url(#SVGID_00000050642880693218417370000004318388829344289413_);fill:#294A5B;}
	.st1{clip-path:url(#SVGID_00000050642880693218417370000004318388829344289413_);fill:#F7D118;}
	.st2{clip-path:url(#SVGID_00000050642880693218417370000004318388829344289413_);fill:#DFBC0D;}
	.st3{clip-path:url(#SVGID_00000050642880693218417370000004318388829344289413_);fill:#FFFFFF;}
	.st4{clip-path:url(#SVGID_00000050642880693218417370000004318388829344289413_);fill:#D7D7D7;}
	
		.st5{clip-path:url(#SVGID_00000050642880693218417370000004318388829344289413_);fill:none;stroke:#224A5B;stroke-width:3.244;stroke-linecap:round;stroke-miterlimit:10;}
	.st6{clip-path:url(#SVGID_00000122699851749969751590000018231647143843891391_);fill:#FFFFFF;}
	.st7{clip-path:url(#SVGID_00000122699851749969751590000018231647143843891391_);fill:#D7D7D7;}
	
		.st8{clip-path:url(#SVGID_00000122699851749969751590000018231647143843891391_);fill:none;stroke:#224A5B;stroke-width:3.244;stroke-linecap:round;stroke-miterlimit:10;}
	.st9{clip-path:url(#SVGID_00000065046661138105627680000011795626570809943211_);fill:#FFFFFF;}
	.st10{clip-path:url(#SVGID_00000065046661138105627680000011795626570809943211_);fill:#D7D7D7;}
	
		.st11{clip-path:url(#SVGID_00000065046661138105627680000011795626570809943211_);fill:none;stroke:#224A5B;stroke-width:3.244;stroke-linecap:round;stroke-miterlimit:10;}
	.st12{clip-path:url(#SVGID_00000133496109003047708230000003979756058798599359_);fill:#FFFFFF;}
	.st13{clip-path:url(#SVGID_00000133496109003047708230000003979756058798599359_);fill:#D7D7D7;}
	
		.st14{clip-path:url(#SVGID_00000133496109003047708230000003979756058798599359_);fill:none;stroke:#224A5B;stroke-width:3.244;stroke-linecap:round;stroke-miterlimit:10;}
	
		.st15{clip-path:url(#SVGID_00000051353350654596241170000009942286942602814383_);fill:none;stroke:#646462;stroke-width:0.2;stroke-miterlimit:10;}
	.st16{clip-path:url(#SVGID_00000051353350654596241170000009942286942602814383_);fill:#D8D8D8;}
	
		.st17{clip-path:url(#SVGID_00000127765057312765390760000017178147936487288452_);fill:none;stroke:#63B984;stroke-linecap:round;stroke-miterlimit:10;}
	
		.st18{clip-path:url(#SVGID_00000127765057312765390760000017178147936487288452_);fill:none;stroke:#646462;stroke-width:0.2;stroke-miterlimit:10;}
	.st19{clip-path:url(#SVGID_00000114758461956295033470000018157201416598006195_);fill:#004050;}
	.st20{clip-path:url(#SVGID_00000114758461956295033470000018157201416598006195_);fill:#F7D118;}
	.st21{clip-path:url(#SVGID_00000114758461956295033470000018157201416598006195_);fill:#294A5B;}
	
		.st22{clip-path:url(#SVGID_00000114758461956295033470000018157201416598006195_);fill:none;stroke:#63B984;stroke-linecap:round;stroke-miterlimit:10;}
	
		.st23{clip-path:url(#SVGID_00000144322094278714627990000010402412556705851549_);fill:none;stroke:#CE505A;stroke-linecap:round;stroke-miterlimit:10;}
	
		.st24{clip-path:url(#SVGID_00000038403643651409282330000003685553433812467611_);fill:none;stroke:#CE505A;stroke-linecap:round;stroke-miterlimit:10;}
	
		.st25{clip-path:url(#SVGID_00000015338614866523020030000014823269328849356725_);fill:none;stroke:#CE505A;stroke-linecap:round;stroke-miterlimit:10;}
	.st26{clip-path:url(#SVGID_00000018234222964156456460000006671169072439615926_);fill:#FFFFFF;}
	.st27{clip-path:url(#SVGID_00000018234222964156456460000006671169072439615926_);fill:#294A5B;}
	.st28{clip-path:url(#SVGID_00000018234222964156456460000006671169072439615926_);fill:#F7D118;}
	.st29{clip-path:url(#SVGID_00000018234222964156456460000006671169072439615926_);fill:#DFBC0D;}
	.st30{fill:#F7D118;}
	.st31{fill:#294A5B;}
	.st32{fill:#DFBC0D;}
</style>
<g>
	<polygon class="st30" points="36.62,26.51 44.96,26.51 44.96,30.21 32.71,30.21 32.71,10.6 44.82,10.6 44.82,14.3 36.62,14.3 
		36.62,18.47 44.11,18.47 44.11,22.12 36.62,22.12 	"/>
	<path class="st30" d="M58.66,30.6c-2.98,0-5.44-0.98-7.38-2.94c-1.94-1.96-2.91-4.38-2.91-7.25c0-2.89,0.97-5.32,2.91-7.27
		c1.94-1.95,4.4-2.93,7.38-2.93c1.79,0,3.45,0.42,4.97,1.25c1.52,0.83,2.7,1.96,3.55,3.38l-3.37,1.93
		c-0.49-0.88-1.19-1.56-2.09-2.06c-0.91-0.49-1.92-0.74-3.06-0.74c-1.92,0-3.48,0.6-4.65,1.79c-1.18,1.19-1.77,2.74-1.77,4.65
		c0,1.89,0.59,3.43,1.77,4.62c1.18,1.2,2.73,1.79,4.65,1.79c1.13,0,2.15-0.25,3.07-0.74c0.91-0.49,1.61-1.17,2.08-2.03l3.37,1.93
		c-0.85,1.42-2.03,2.54-3.54,3.38C62.13,30.19,60.47,30.6,58.66,30.6"/>
	<rect x="71.28" y="10.6" class="st30" width="3.9" height="19.61"/>
	<path class="st30" d="M91.42,30.21l-4-6.81h-2.96v6.81h-3.9V10.6h7.92c1.83,0,3.39,0.64,4.67,1.9c1.28,1.27,1.92,2.8,1.92,4.59
		c0,1.21-0.35,2.34-1.05,3.37c-0.7,1.04-1.62,1.82-2.77,2.34l4.39,7.39H91.42z M84.46,14.22v5.8h4.02c0.74,0,1.37-0.28,1.9-0.85
		c0.53-0.57,0.79-1.26,0.79-2.06c0-0.8-0.26-1.48-0.79-2.04c-0.53-0.56-1.16-0.84-1.9-0.84H84.46z"/>
	<path class="st30" d="M108.8,30.6c-2.98,0-5.44-0.98-7.38-2.94c-1.94-1.96-2.91-4.38-2.91-7.25c0-2.89,0.97-5.32,2.91-7.27
		c1.94-1.95,4.4-2.93,7.38-2.93c1.79,0,3.45,0.42,4.97,1.25c1.52,0.83,2.7,1.96,3.55,3.38l-3.37,1.93
		c-0.49-0.88-1.19-1.56-2.09-2.06c-0.91-0.49-1.92-0.74-3.06-0.74c-1.92,0-3.48,0.6-4.65,1.79c-1.18,1.19-1.77,2.74-1.77,4.65
		c0,1.89,0.59,3.43,1.77,4.62c1.18,1.2,2.73,1.79,4.65,1.79c1.13,0,2.15-0.25,3.07-0.74c0.91-0.49,1.61-1.17,2.08-2.03l3.37,1.93
		c-0.85,1.42-2.03,2.54-3.54,3.38C112.27,30.19,110.61,30.6,108.8,30.6"/>
	<polygon class="st30" points="125.32,26.51 132.88,26.51 132.88,30.21 121.42,30.21 121.42,10.6 125.32,10.6 	"/>
	<polygon class="st30" points="140.68,26.51 149.03,26.51 149.03,30.21 136.78,30.21 136.78,10.6 148.89,10.6 148.89,14.3 
		140.68,14.3 140.68,18.47 148.18,18.47 148.18,22.12 140.68,22.12 	"/>
	<path class="st31" d="M18.87,5.17c4.24,0,8.01,1.99,10.45,5.09c0.8-1.17,1.85-2.14,2.9-3.1c-3.21-3.79-8.01-6.2-13.35-6.2
		c-9.65,0-17.5,7.85-17.5,17.5c0,3.09,0.81,6,2.22,8.52l-1.36,0.89c-0.44,0.28-0.46,0.85-0.04,1.01l5.85,2.31
		c0.42,0.17,0.97-0.19,0.98-0.64l0.27-6.28c0.02-0.45-0.5-0.66-0.94-0.37l-1.21,0.79c-0.99-1.86-1.55-3.98-1.55-6.22
		C5.58,11.13,11.54,5.17,18.87,5.17"/>
	<path class="st30" d="M27.27,28.36c-0.03-0.02-0.05-0.04-0.07-0.07c-1.37-1.76-2.65-3.39-3.93-5.04c-0.15-0.19-0.11-0.47,0.09-0.61
		c0.11-0.08,0.21-0.15,0.32-0.22c2.36-1.64,3.43-4.7,2.56-7.43c-0.88-2.75-3.25-4.68-6.5-4.71c-1.81-0.02-3.63-0.02-5.44-0.02
		c0.15,0.24,2.63,3.66,2.75,3.92c0.88,0,1.77,0.01,2.65,0.02c1.77,0.02,2.92,1.16,2.91,2.81c-0.01,1.59-1.21,2.69-2.94,2.71
		c-0.64,0.01-1.29,0-1.93,0c-0.43,0-0.87,0-1.35,0c-0.35,0-0.55,0.4-0.33,0.68c3.18,4.07,6.27,8.02,9.36,11.97
		c0.02-0.01,0.03-0.02,0.04-0.02c0.27-0.14,0.56-0.25,0.85-0.36c0,0,0,0,0,0c0.08-0.06,0.2-0.12,0.29-0.17
		c0.13-0.08,0.26-0.17,0.38-0.26c0.01-0.01,0.02-0.02,0.03-0.03c0.21-0.21,0.45-0.4,0.66-0.6c0.26-0.25,0.54-0.48,0.79-0.73
		c0.04-0.04,0.09-0.09,0.13-0.14L27.27,28.36z"/>
	<path class="st32" d="M27.27,28.36c-0.03-0.02-0.05-0.04-0.07-0.07c-0.13-0.17-0.26-0.33-0.38-0.49c-0.99,0.86-2.12,1.57-3.33,2.1
		c0.64,0.82,1.29,1.65,1.93,2.47c0.02-0.01,0.03-0.02,0.04-0.02c0.27-0.14,0.56-0.25,0.85-0.36c0,0,0,0,0,0
		c0.08-0.06,0.2-0.12,0.29-0.17c0.13-0.08,0.26-0.17,0.38-0.26c0.01-0.01,0.02-0.02,0.03-0.03c0.21-0.21,0.45-0.4,0.66-0.6
		c0.26-0.25,0.54-0.48,0.79-0.73c0.04-0.04,0.09-0.09,0.13-0.14L27.27,28.36z"/>
	<path class="st31" d="M27.45,28.59c-2.32,1.97-5.31,3.15-8.58,3.15c-2.16,0-4.2-0.52-6.01-1.44c-0.92,1.1-1.86,2.19-2.8,3.27
		c2.59,1.51,5.6,2.38,8.81,2.38c4.25,0,8.15-1.52,11.18-4.05L27.45,28.59z"/>
</g>
</svg>
