<svg width="978" height="978" viewBox="0 0 978 978" fill="none" xmlns="http://www.w3.org/2000/svg">
<rect width="978" height="978" fill="white"/>
<g filter="url(#filter0_d_4772_707)">
<circle cx="488.778" cy="488.778" r="425.778" fill="white"/>
</g>
<g clip-path="url(#clip0_4772_707)">
<path d="M670.866 376.227C658.074 382.218 644.509 386.153 630.62 387.901C645.26 378.63 656.217 364.04 661.449 346.849C647.71 355.506 632.647 361.573 616.948 364.855C606.402 352.908 592.424 344.985 577.187 342.317C561.95 339.65 546.307 342.387 532.69 350.103C519.074 357.82 508.247 370.083 501.892 384.987C495.537 399.892 494.011 416.601 497.55 432.519C469.688 431.04 442.432 423.374 417.55 410.017C392.667 396.661 370.716 377.913 353.121 354.992C346.893 366.318 343.62 379.194 343.638 392.3C343.638 418.024 356.003 440.75 374.802 454.056C363.677 453.685 352.797 450.504 343.068 444.777V445.7C343.072 462.832 348.671 479.436 358.916 492.696C369.161 505.956 383.423 515.057 399.282 518.455C388.954 521.418 378.125 521.855 367.614 519.732C372.086 534.479 380.801 547.376 392.539 556.617C404.278 565.858 418.452 570.981 433.077 571.269C418.541 583.356 401.898 592.291 384.099 597.564C366.301 602.836 347.695 604.342 329.346 601.996C361.376 623.807 398.663 635.386 436.746 635.348C565.643 635.348 636.132 522.287 636.132 424.234C636.132 421.04 636.048 417.812 635.914 414.654C649.635 404.154 661.476 391.148 670.882 376.245L670.866 376.227Z" fill="#62CFC9"/>
</g>
<defs>
<filter id="filter0_d_4772_707" x="53" y="54" width="871.555" height="871.555" filterUnits="userSpaceOnUse" color-interpolation-filters="sRGB">
<feFlood flood-opacity="0" result="BackgroundImageFix"/>
<feColorMatrix in="SourceAlpha" type="matrix" values="0 0 0 0 0 0 0 0 0 0 0 0 0 0 0 0 0 0 127 0" result="hardAlpha"/>
<feOffset dy="1"/>
<feGaussianBlur stdDeviation="5"/>
<feColorMatrix type="matrix" values="0 0 0 0 0 0 0 0 0 0 0 0 0 0 0 0 0 0 0.1 0"/>
<feBlend mode="normal" in2="BackgroundImageFix" result="effect1_dropShadow_4772_707"/>
<feBlend mode="normal" in="SourceGraphic" in2="effect1_dropShadow_4772_707" result="shape"/>
</filter>
<clipPath id="clip0_4772_707">
<rect width="402.123" height="425.778" fill="white" transform="translate(299.538 275.886)"/>
</clipPath>
</defs>
</svg>
