<svg width="978" height="978" viewBox="0 0 978 978" fill="none" xmlns="http://www.w3.org/2000/svg">
<rect width="978" height="978" fill="white"/>
<g filter="url(#filter0_d_4772_721)">
<circle cx="488.778" cy="488.778" r="425.778" fill="white"/>
</g>
<g clip-path="url(#clip0_4772_721)">
<path d="M660.494 391.165C668.151 422.779 668.151 488.774 668.151 488.774C668.151 488.774 668.151 554.77 660.494 586.384C656.239 603.859 643.79 617.608 628.023 622.256C599.388 630.7 500.6 630.7 500.6 630.7C500.6 630.7 401.862 630.7 373.177 622.256C357.344 617.537 344.911 603.805 340.706 586.384C333.049 554.77 333.049 488.774 333.049 488.774C333.049 488.774 333.049 422.779 340.706 391.165C344.962 373.69 357.411 359.941 373.177 355.293C401.862 346.849 500.6 346.849 500.6 346.849C500.6 346.849 599.388 346.849 628.023 355.293C643.857 360.012 656.289 373.744 660.494 391.165V391.165ZM467.09 550.867L567.621 488.774L467.09 426.682V550.867Z" fill="#D74F4F"/>
</g>
<defs>
<filter id="filter0_d_4772_721" x="53" y="54" width="871.555" height="871.555" filterUnits="userSpaceOnUse" color-interpolation-filters="sRGB">
<feFlood flood-opacity="0" result="BackgroundImageFix"/>
<feColorMatrix in="SourceAlpha" type="matrix" values="0 0 0 0 0 0 0 0 0 0 0 0 0 0 0 0 0 0 127 0" result="hardAlpha"/>
<feOffset dy="1"/>
<feGaussianBlur stdDeviation="5"/>
<feColorMatrix type="matrix" values="0 0 0 0 0 0 0 0 0 0 0 0 0 0 0 0 0 0 0.1 0"/>
<feBlend mode="normal" in2="BackgroundImageFix" result="effect1_dropShadow_4772_721"/>
<feBlend mode="normal" in="SourceGraphic" in2="effect1_dropShadow_4772_721" result="shape"/>
</filter>
<clipPath id="clip0_4772_721">
<rect width="402.123" height="425.778" fill="white" transform="translate(299.538 275.886)"/>
</clipPath>
</defs>
</svg>
